<svg width="88" height="28" viewBox="0 0 88 28" fill="none" xmlns="http://www.w3.org/2000/svg">
<g id="Logotype">
<path d="M3.29204 17.424H9.87204V20H0.100037V0.540009H3.29204V17.424Z" fill="#101828"/>
<path d="M11.4774 12.216C11.4774 10.6667 11.7948 9.29467 12.4294 8.10001C13.0828 6.90534 13.9601 5.98134 15.0614 5.32801C16.1814 4.65601 17.4134 4.32001 18.7574 4.32001C19.9708 4.32001 21.0254 4.56268 21.9214 5.04801C22.8361 5.51468 23.5641 6.10268 24.1054 6.81201V4.57201H27.3254V20H24.1054V17.704C23.5641 18.432 22.8268 19.0387 21.8934 19.524C20.9601 20.0093 19.8961 20.252 18.7014 20.252C17.3761 20.252 16.1628 19.916 15.0614 19.244C13.9601 18.5533 13.0828 17.6013 12.4294 16.388C11.7948 15.156 11.4774 13.7653 11.4774 12.216ZM24.1054 12.272C24.1054 11.208 23.8814 10.284 23.4334 9.50001C23.0041 8.71601 22.4348 8.11868 21.7254 7.70801C21.0161 7.29734 20.2508 7.09201 19.4294 7.09201C18.6081 7.09201 17.8428 7.29734 17.1334 7.70801C16.4241 8.10001 15.8454 8.68801 15.3974 9.47201C14.9681 10.2373 14.7534 11.152 14.7534 12.216C14.7534 13.28 14.9681 14.2133 15.3974 15.016C15.8454 15.8187 16.4241 16.4347 17.1334 16.864C17.8614 17.2747 18.6268 17.48 19.4294 17.48C20.2508 17.48 21.0161 17.2747 21.7254 16.864C22.4348 16.4533 23.0041 15.856 23.4334 15.072C23.8814 14.2693 24.1054 13.336 24.1054 12.272Z" fill="#101828"/>
<path d="M45.406 4.57201L35.942 27.252H32.638L35.774 19.748L29.698 4.57201H33.254L37.594 16.332L42.102 4.57201H45.406Z" fill="#101828"/>
<path d="M61.9549 11.908C61.9549 12.4867 61.9175 13.0093 61.8429 13.476H50.0549C50.1482 14.708 50.6055 15.6973 51.4269 16.444C52.2482 17.1907 53.2562 17.564 54.4509 17.564C56.1682 17.564 57.3815 16.8453 58.0909 15.408H61.5349C61.0682 16.8267 60.2189 17.9933 58.9869 18.908C57.7735 19.804 56.2615 20.252 54.4509 20.252C52.9762 20.252 51.6509 19.9253 50.4749 19.272C49.3175 18.6 48.4029 17.6667 47.7309 16.472C47.0775 15.2587 46.7509 13.8587 46.7509 12.272C46.7509 10.6853 47.0682 9.29467 47.7029 8.10001C48.3562 6.88668 49.2615 5.95334 50.4189 5.30001C51.5949 4.64668 52.9389 4.32001 54.4509 4.32001C55.9069 4.32001 57.2042 4.63734 58.3429 5.27201C59.4815 5.90668 60.3682 6.80268 61.0029 7.96001C61.6375 9.09868 61.9549 10.4147 61.9549 11.908ZM58.6229 10.9C58.6042 9.72401 58.1842 8.78134 57.3629 8.07201C56.5415 7.36268 55.5242 7.00801 54.3109 7.00801C53.2095 7.00801 52.2669 7.36268 51.4829 8.07201C50.6989 8.76268 50.2322 9.70534 50.0829 10.9H58.6229Z" fill="#101828"/>
<path d="M68.2881 6.81201C68.7548 6.02801 69.3708 5.42134 70.1361 4.99201C70.9201 4.54401 71.8441 4.32001 72.9081 4.32001V7.62401H72.0961C70.8454 7.62401 69.8935 7.94134 69.2401 8.57601C68.6055 9.21068 68.2881 10.312 68.2881 11.88V20H65.0961V4.57201H68.2881V6.81201Z" fill="#101828"/>
<path d="M81.4422 20.252C80.2289 20.252 79.1369 20.0373 78.1662 19.608C77.2142 19.16 76.4582 18.5627 75.8982 17.816C75.3382 17.0507 75.0395 16.2013 75.0022 15.268H78.3062C78.3622 15.9213 78.6702 16.472 79.2302 16.92C79.8089 17.3493 80.5275 17.564 81.3862 17.564C82.2822 17.564 82.9729 17.396 83.4582 17.06C83.9622 16.7053 84.2142 16.2573 84.2142 15.716C84.2142 15.1373 83.9342 14.708 83.3742 14.428C82.8329 14.148 81.9649 13.84 80.7702 13.504C79.6129 13.1867 78.6702 12.8787 77.9422 12.58C77.2142 12.2813 76.5795 11.824 76.0382 11.208C75.5155 10.592 75.2542 9.78001 75.2542 8.77201C75.2542 7.95068 75.4969 7.20401 75.9822 6.53201C76.4675 5.84134 77.1582 5.30001 78.0542 4.90801C78.9689 4.51601 80.0142 4.32001 81.1902 4.32001C82.9449 4.32001 84.3542 4.76801 85.4182 5.66401C86.5009 6.54134 87.0795 7.74534 87.1542 9.27601H83.9622C83.9062 8.58534 83.6262 8.03468 83.1222 7.62401C82.6182 7.21334 81.9369 7.00801 81.0782 7.00801C80.2382 7.00801 79.5942 7.16668 79.1462 7.48401C78.6982 7.80134 78.4742 8.22134 78.4742 8.74401C78.4742 9.15467 78.6235 9.50001 78.9222 9.78001C79.2209 10.06 79.5849 10.284 80.0142 10.452C80.4435 10.6013 81.0782 10.7973 81.9182 11.04C83.0382 11.3387 83.9529 11.6467 84.6622 11.964C85.3902 12.2627 86.0155 12.7107 86.5382 13.308C87.0609 13.9053 87.3315 14.6987 87.3502 15.688C87.3502 16.5653 87.1075 17.3493 86.6222 18.04C86.1369 18.7307 85.4462 19.272 84.5502 19.664C83.6729 20.056 82.6369 20.252 81.4422 20.252Z" fill="#101828"/>
</g>
</svg>
