<svg width="130" height="28" viewBox="0 0 130 28" fill="none" xmlns="http://www.w3.org/2000/svg">
<g id="Logotype">
<path d="M22.52 25.1C21.8853 25.884 21.1106 26.4813 20.196 26.892C19.3 27.3027 18.3106 27.508 17.228 27.508C15.772 27.508 14.456 27.1907 13.28 26.556C12.104 25.94 10.76 24.8387 9.24798 23.252C7.47465 23.028 5.88798 22.4587 4.48798 21.544C3.10665 20.6293 2.02398 19.4533 1.23998 18.016C0.474647 16.56 0.09198 14.9547 0.09198 13.2C0.09198 11.2773 0.549313 9.55066 1.46398 8.01999C2.39731 6.47066 3.67598 5.25732 5.29998 4.37999C6.94265 3.50266 8.78131 3.06399 10.816 3.06399C12.8506 3.06399 14.68 3.50266 16.304 4.37999C17.928 5.25732 19.2066 6.47066 20.14 8.01999C21.0733 9.55066 21.54 11.2773 21.54 13.2C21.54 15.4773 20.896 17.4747 19.608 19.192C18.3386 20.9093 16.6493 22.104 14.54 22.776C15.0066 23.2613 15.4546 23.6067 15.884 23.812C16.332 24.036 16.808 24.148 17.312 24.148C18.5253 24.148 19.5893 23.6627 20.504 22.692L22.52 25.1ZM4.68398 13.2C4.68398 14.4133 4.94531 15.496 5.46798 16.448C6.00931 17.4 6.74665 18.1467 7.67998 18.688C8.61331 19.2107 9.65865 19.472 10.816 19.472C11.9733 19.472 13.0186 19.2107 13.952 18.688C14.8853 18.1467 15.6133 17.4 16.136 16.448C16.6773 15.496 16.948 14.4133 16.948 13.2C16.948 11.9867 16.6773 10.904 16.136 9.95199C15.6133 8.99999 14.8853 8.26266 13.952 7.73999C13.0186 7.19866 11.9733 6.92799 10.816 6.92799C9.65865 6.92799 8.61331 7.19866 7.67998 7.73999C6.74665 8.26266 6.00931 8.99999 5.46798 9.95199C4.94531 10.904 4.68398 11.9867 4.68398 13.2Z" fill="#101828"/>
<path d="M39.817 7.93599V23H35.673V21.208C35.0943 21.8613 34.4036 22.3653 33.601 22.72C32.7983 23.056 31.9303 23.224 30.997 23.224C29.0183 23.224 27.4503 22.6547 26.293 21.516C25.1356 20.3773 24.557 18.688 24.557 16.448V7.93599H28.925V15.804C28.925 18.2307 29.9423 19.444 31.977 19.444C33.0223 19.444 33.8623 19.108 34.497 18.436C35.1316 17.7453 35.449 16.728 35.449 15.384V7.93599H39.817Z" fill="#101828"/>
<path d="M51.0316 23.224C49.445 23.224 48.017 22.8973 46.7476 22.244C45.497 21.572 44.517 20.648 43.8076 19.472C43.0983 18.296 42.7436 16.9613 42.7436 15.468C42.7436 13.9747 43.0983 12.64 43.8076 11.464C44.517 10.288 45.497 9.37332 46.7476 8.71999C48.017 8.04799 49.445 7.71199 51.0316 7.71199C52.6183 7.71199 54.037 8.04799 55.2876 8.71999C56.5383 9.37332 57.5183 10.288 58.2276 11.464C58.937 12.64 59.2916 13.9747 59.2916 15.468C59.2916 16.9613 58.937 18.296 58.2276 19.472C57.5183 20.648 56.5383 21.572 55.2876 22.244C54.037 22.8973 52.6183 23.224 51.0316 23.224ZM51.0316 19.64C52.1516 19.64 53.0663 19.2667 53.7756 18.52C54.5036 17.7547 54.8676 16.7373 54.8676 15.468C54.8676 14.1987 54.5036 13.1907 53.7756 12.444C53.0663 11.6787 52.1516 11.296 51.0316 11.296C49.9116 11.296 48.9876 11.6787 48.2596 12.444C47.5316 13.1907 47.1676 14.1987 47.1676 15.468C47.1676 16.7373 47.5316 17.7547 48.2596 18.52C48.9876 19.2667 49.9116 19.64 51.0316 19.64Z" fill="#101828"/>
<path d="M71.9273 22.272C71.498 22.5893 70.966 22.832 70.3313 23C69.7153 23.1493 69.062 23.224 68.3713 23.224C66.5793 23.224 65.1886 22.7667 64.1993 21.852C63.2286 20.9373 62.7433 19.5933 62.7433 17.82V11.632H60.4193V8.27199H62.7433V4.60399H67.1113V8.27199H70.8633V11.632H67.1113V17.764C67.1113 18.3987 67.27 18.8933 67.5873 19.248C67.9233 19.584 68.39 19.752 68.9873 19.752C69.678 19.752 70.266 19.5653 70.7513 19.192L71.9273 22.272Z" fill="#101828"/>
<path d="M74.3793 7.93599H78.7473V23H74.3793V7.93599ZM76.5633 5.83599C75.7606 5.83599 75.1073 5.60266 74.6033 5.13599C74.0993 4.66932 73.8473 4.09066 73.8473 3.39999C73.8473 2.70932 74.0993 2.13066 74.6033 1.66399C75.1073 1.19732 75.7606 0.963989 76.5633 0.963989C77.3659 0.963989 78.0193 1.18799 78.5233 1.63599C79.0273 2.08399 79.2793 2.64399 79.2793 3.31599C79.2793 4.04399 79.0273 4.65066 78.5233 5.13599C78.0193 5.60266 77.3659 5.83599 76.5633 5.83599Z" fill="#101828"/>
<path d="M97.5571 15.524C97.5571 15.58 97.5291 15.972 97.4731 16.7H86.0771C86.2825 17.6333 86.7678 18.3707 87.5331 18.912C88.2985 19.4533 89.2505 19.724 90.3891 19.724C91.1731 19.724 91.8638 19.612 92.4611 19.388C93.0771 19.1453 93.6465 18.772 94.1691 18.268L96.4931 20.788C95.0745 22.412 93.0025 23.224 90.2771 23.224C88.5785 23.224 87.0758 22.8973 85.7691 22.244C84.4625 21.572 83.4545 20.648 82.7451 19.472C82.0358 18.296 81.6811 16.9613 81.6811 15.468C81.6811 13.9933 82.0265 12.668 82.7171 11.492C83.4265 10.2973 84.3878 9.37332 85.6011 8.71999C86.8331 8.04799 88.2051 7.71199 89.7171 7.71199C91.1918 7.71199 92.5265 8.02932 93.7211 8.66399C94.9158 9.29866 95.8491 10.2133 96.5211 11.408C97.2118 12.584 97.5571 13.956 97.5571 15.524ZM89.7451 11.016C88.7558 11.016 87.9251 11.296 87.2531 11.856C86.5811 12.416 86.1705 13.1813 86.0211 14.152H93.4411C93.2918 13.2 92.8811 12.444 92.2091 11.884C91.5371 11.3053 90.7158 11.016 89.7451 11.016Z" fill="#101828"/>
<path d="M109.621 7.71199C111.488 7.71199 112.991 8.27199 114.129 9.39199C115.287 10.512 115.865 12.1733 115.865 14.376V23H111.497V15.048C111.497 13.8533 111.236 12.9667 110.713 12.388C110.191 11.7907 109.435 11.492 108.445 11.492C107.344 11.492 106.467 11.8373 105.813 12.528C105.16 13.2 104.833 14.208 104.833 15.552V23H100.465V7.93599H104.637V9.69999C105.216 9.06532 105.935 8.57999 106.793 8.24399C107.652 7.88932 108.595 7.71199 109.621 7.71199Z" fill="#101828"/>
<path d="M129.541 22.272C129.111 22.5893 128.579 22.832 127.945 23C127.329 23.1493 126.675 23.224 125.985 23.224C124.193 23.224 122.802 22.7667 121.813 21.852C120.842 20.9373 120.357 19.5933 120.357 17.82V11.632H118.033V8.27199H120.357V4.60399H124.725V8.27199H128.477V11.632H124.725V17.764C124.725 18.3987 124.883 18.8933 125.201 19.248C125.537 19.584 126.003 19.752 126.601 19.752C127.291 19.752 127.879 19.5653 128.365 19.192L129.541 22.272Z" fill="#101828"/>
</g>
</svg>
