<svg width="103" height="28" viewBox="0 0 103 28" fill="none" xmlns="http://www.w3.org/2000/svg">
<g id="Logotype">
<path d="M18.6889 7.50709C18.0625 2.98294 14.5824 0.357941 10.0682 0.357941C4.74857 0.357941 0.74147 4.23578 0.74147 10.8182C0.74147 17.3906 4.69886 21.2784 10.0682 21.2784C14.9105 21.2784 18.1221 18.1463 18.6889 14.2585L14.9702 14.2386C14.5028 16.625 12.554 17.9673 10.1179 17.9673C6.81675 17.9673 4.45028 15.4915 4.45028 10.8182C4.45028 6.22442 6.79687 3.66902 10.1278 3.66902C12.6037 3.66902 14.5426 5.07101 14.9702 7.50709H18.6889Z" fill="#101828"/>
<path d="M26.3029 21.3082C28.6992 21.3082 30.131 20.1846 30.7873 18.902H30.9066V21H34.3668V10.7784C34.3668 6.74146 31.0756 5.5284 28.1623 5.5284C24.9506 5.5284 22.4847 6.96021 21.6893 9.74431L25.0501 10.2216C25.408 9.17754 26.4222 8.28266 28.1822 8.28266C29.8526 8.28266 30.7674 9.13777 30.7674 10.6392V10.6989C30.7674 11.7329 29.6836 11.7827 26.989 12.071C24.0259 12.3892 21.1921 13.2741 21.1921 16.7145C21.1921 19.7173 23.3895 21.3082 26.3029 21.3082ZM27.2376 18.6633C25.7361 18.6633 24.6623 17.9773 24.6623 16.6548C24.6623 15.2727 25.8654 14.696 27.4762 14.4673C28.4208 14.3381 30.31 14.0994 30.7773 13.7216V15.5213C30.7773 17.2216 29.4052 18.6633 27.2376 18.6633Z" fill="#101828"/>
<path d="M45.6125 5.72726H42.5998V2.06817H39.0003V5.72726H36.8327V8.51135H39.0003V17.0028C38.9804 19.8764 41.0685 21.2883 43.7731 21.2088C44.7972 21.179 45.5032 20.9801 45.891 20.8508L45.2844 18.0369C45.0856 18.0866 44.6779 18.1761 44.2304 18.1761C43.3256 18.1761 42.5998 17.8579 42.5998 16.4062V8.51135H45.6125V5.72726Z" fill="#101828"/>
<path d="M53.0177 21.3082C55.414 21.3082 56.8459 20.1846 57.5021 18.902H57.6214V21H61.0816V10.7784C61.0816 6.74146 57.7905 5.5284 54.8771 5.5284C51.6655 5.5284 49.1996 6.96021 48.4041 9.74431L51.7649 10.2216C52.1228 9.17754 53.1371 8.28266 54.897 8.28266C56.5674 8.28266 57.4822 9.13777 57.4822 10.6392V10.6989C57.4822 11.7329 56.3984 11.7827 53.7038 12.071C50.7407 12.3892 47.9069 13.2741 47.9069 16.7145C47.9069 19.7173 50.1044 21.3082 53.0177 21.3082ZM53.9524 18.6633C52.451 18.6633 51.3771 17.9773 51.3771 16.6548C51.3771 15.2727 52.5802 14.696 54.191 14.4673C55.1356 14.3381 57.0248 14.0994 57.4922 13.7216V15.5213C57.4922 17.2216 56.12 18.6633 53.9524 18.6633Z" fill="#101828"/>
<path d="M68.3004 0.63635H64.701V21H68.3004V0.63635Z" fill="#101828"/>
<path d="M78.6637 21.2983C83.1381 21.2983 85.9819 18.1463 85.9819 13.4233C85.9819 8.69033 83.1381 5.5284 78.6637 5.5284C74.1892 5.5284 71.3455 8.69033 71.3455 13.4233C71.3455 18.1463 74.1892 21.2983 78.6637 21.2983ZM78.6836 18.4148C76.2077 18.4148 74.9946 16.2074 74.9946 13.4133C74.9946 10.6193 76.2077 8.38209 78.6836 8.38209C81.1196 8.38209 82.3327 10.6193 82.3327 13.4133C82.3327 16.2074 81.1196 18.4148 78.6836 18.4148Z" fill="#101828"/>
<path d="M95.6789 27.0454C99.8054 27.0454 102.848 25.1562 102.848 21.2486V5.72726H99.2983V8.25283H99.0994C98.5525 7.14914 97.409 5.5284 94.7144 5.5284C91.1846 5.5284 88.4105 8.2926 88.4105 13.3139C88.4105 18.2954 91.1846 20.7812 94.7045 20.7812C97.3196 20.7812 98.5426 19.3793 99.0994 18.2557H99.2784V21.1491C99.2784 23.3963 97.7869 24.321 95.7386 24.321C93.571 24.321 92.6164 23.2969 92.1789 22.402L88.9375 23.1875C89.5937 25.3253 91.7912 27.0454 95.6789 27.0454ZM95.7088 17.9574C93.3324 17.9574 92.0795 16.1079 92.0795 13.294C92.0795 10.5199 93.3125 8.48152 95.7088 8.48152C98.0255 8.48152 99.2983 10.4006 99.2983 13.294C99.2983 16.2074 98.0056 17.9574 95.7088 17.9574Z" fill="#101828"/>
</g>
</svg>
