<svg width="127" height="22" viewBox="0 0 127 22" fill="none" xmlns="http://www.w3.org/2000/svg">
<g id="Logotype">
<path d="M17.728 15.904C17.168 17.7147 16.188 19.068 14.788 19.964C13.388 20.8413 11.7547 21.28 9.88798 21.28C8.05865 21.28 6.47198 20.8973 5.12799 20.132C3.80265 19.3667 2.77599 18.2747 2.04799 16.856C1.33865 15.4373 0.983986 13.7387 0.983986 11.76C0.983986 9.78135 1.34799 8.08268 2.07599 6.66401C2.80399 5.24535 3.83065 4.15335 5.15598 3.38801C6.48132 2.62268 8.03998 2.24001 9.83198 2.24001C11.7173 2.24001 13.332 2.64135 14.676 3.44401C16.0386 4.22801 16.972 5.42268 17.476 7.02801L13.976 8.51201C13.6586 7.39201 13.1733 6.59868 12.52 6.13201C11.8666 5.64668 11.0267 5.40401 9.99998 5.40401C8.46932 5.40401 7.24665 5.95468 6.33198 7.05601C5.43599 8.13868 4.98799 9.70668 4.98799 11.76C4.98799 13.7947 5.41732 15.3627 6.27598 16.464C7.13465 17.5653 8.37598 18.116 9.99998 18.116C11.008 18.116 11.876 17.8453 12.604 17.304C13.3506 16.7627 13.8733 15.9413 14.172 14.84L17.728 15.904Z" fill="#101828"/>
<path d="M22.5613 4.98401C20.9746 4.98401 20.1813 4.30268 20.1813 2.94001C20.1813 1.55868 20.9746 0.868011 22.5613 0.868011C24.1479 0.868011 24.9413 1.55868 24.9413 2.94001C24.9413 4.30268 24.1479 4.98401 22.5613 4.98401ZM24.4653 7.00001V21H20.6293V7.00001H24.4653Z" fill="#101828"/>
<path d="M28.5316 21V7.00001H31.8636L32.1156 9.74401C32.4703 8.79201 33.0023 8.05468 33.7116 7.53201C34.4396 6.99068 35.3543 6.72001 36.4556 6.72001C37.1089 6.72001 37.6129 6.82268 37.9676 7.02801L37.5196 10.248C37.3329 10.192 37.0996 10.1453 36.8196 10.108C36.5583 10.052 36.2129 10.024 35.7836 10.024C35.2049 10.024 34.6543 10.164 34.1316 10.444C33.6276 10.7053 33.2076 11.116 32.8716 11.676C32.5356 12.2173 32.3676 12.908 32.3676 13.748V21H28.5316Z" fill="#101828"/>
<path d="M46.4267 6.72001C48.2933 6.72001 49.74 7.12134 50.7667 7.92401C51.812 8.72668 52.5027 9.69734 52.8387 10.836L49.2547 12.124C48.8813 10.4253 47.9573 9.57601 46.4827 9.57601C45.4187 9.57601 44.588 9.94934 43.9907 10.696C43.412 11.4427 43.1227 12.5533 43.1227 14.028C43.1227 15.5213 43.4213 16.632 44.0187 17.36C44.6347 18.0693 45.4653 18.424 46.5107 18.424C48.1347 18.424 49.1053 17.5933 49.4227 15.932L52.8947 17.052C52.5773 18.3027 51.868 19.32 50.7667 20.104C49.684 20.888 48.2747 21.28 46.5387 21.28C45.0827 21.28 43.804 20.9907 42.7027 20.412C41.62 19.8333 40.78 19.0027 40.1827 17.92C39.5853 16.8373 39.2867 15.5307 39.2867 14C39.2867 12.4693 39.5853 11.1627 40.1827 10.08C40.7987 8.99735 41.6387 8.16668 42.7027 7.58801C43.7853 7.00934 45.0267 6.72001 46.4267 6.72001Z" fill="#101828"/>
<path d="M62.2593 6.72001C63.6593 6.72001 64.9007 7.00934 65.9833 7.58801C67.066 8.16668 67.906 8.99735 68.5033 10.08C69.1193 11.1627 69.4273 12.4693 69.4273 14C69.4273 15.5307 69.1193 16.8373 68.5033 17.92C67.906 19.0027 67.066 19.8333 65.9833 20.412C64.9007 20.9907 63.6593 21.28 62.2593 21.28C60.8407 21.28 59.59 20.9907 58.5073 20.412C57.4433 19.8333 56.6033 19.0027 55.9873 17.92C55.39 16.8373 55.0913 15.5307 55.0913 14C55.0913 12.4693 55.39 11.1627 55.9873 10.08C56.6033 8.99735 57.4433 8.16668 58.5073 7.58801C59.59 7.00934 60.8407 6.72001 62.2593 6.72001ZM62.2593 9.57601C61.214 9.57601 60.3927 9.94934 59.7953 10.696C59.2167 11.424 58.9273 12.5253 58.9273 14C58.9273 15.4747 59.2167 16.5853 59.7953 17.332C60.3927 18.06 61.214 18.424 62.2593 18.424C63.286 18.424 64.0887 18.06 64.6673 17.332C65.2647 16.5853 65.5633 15.4747 65.5633 14C65.5633 12.5253 65.2647 11.424 64.6673 10.696C64.0887 9.94934 63.286 9.57601 62.2593 9.57601Z" fill="#101828"/>
<path d="M79.0211 6.72001C80.4211 6.72001 81.6624 7.00934 82.7451 7.58801C83.8277 8.16668 84.6677 8.99735 85.2651 10.08C85.8811 11.1627 86.1891 12.4693 86.1891 14C86.1891 15.5307 85.8811 16.8373 85.2651 17.92C84.6677 19.0027 83.8277 19.8333 82.7451 20.412C81.6624 20.9907 80.4211 21.28 79.0211 21.28C77.6024 21.28 76.3517 20.9907 75.2691 20.412C74.2051 19.8333 73.3651 19.0027 72.7491 17.92C72.1517 16.8373 71.8531 15.5307 71.8531 14C71.8531 12.4693 72.1517 11.1627 72.7491 10.08C73.3651 8.99735 74.2051 8.16668 75.2691 7.58801C76.3517 7.00934 77.6024 6.72001 79.0211 6.72001ZM79.0211 9.57601C77.9757 9.57601 77.1544 9.94934 76.5571 10.696C75.9784 11.424 75.6891 12.5253 75.6891 14C75.6891 15.4747 75.9784 16.5853 76.5571 17.332C77.1544 18.06 77.9757 18.424 79.0211 18.424C80.0477 18.424 80.8504 18.06 81.4291 17.332C82.0264 16.5853 82.3251 15.4747 82.3251 14C82.3251 12.5253 82.0264 11.424 81.4291 10.696C80.8504 9.94934 80.0477 9.57601 79.0211 9.57601Z" fill="#101828"/>
<path d="M93.1788 0.868011V16.688C93.1788 17.3413 93.2908 17.7987 93.5148 18.06C93.7388 18.3213 94.1121 18.452 94.6348 18.452C94.9521 18.452 95.2134 18.4333 95.4188 18.396C95.6241 18.3587 95.8854 18.284 96.2028 18.172L95.8668 20.692C95.5494 20.8787 95.1481 21.0187 94.6628 21.112C94.1961 21.224 93.7294 21.28 93.2628 21.28C91.9001 21.28 90.9014 20.9533 90.2668 20.3C89.6508 19.628 89.3428 18.564 89.3428 17.108V0.868011H93.1788Z" fill="#101828"/>
<path d="M104.836 21.28C102.634 21.28 100.87 20.6453 99.5442 19.376C98.2188 18.088 97.5562 16.296 97.5562 14C97.5562 12.4693 97.8548 11.1627 98.4522 10.08C99.0495 8.99735 99.8802 8.16668 100.944 7.58801C102.027 7.00934 103.259 6.72001 104.64 6.72001C106.059 6.72001 107.263 7.00934 108.252 7.58801C109.242 8.14801 109.998 8.92268 110.52 9.91201C111.043 10.8827 111.304 11.9933 111.304 13.244C111.304 13.6173 111.295 13.972 111.276 14.308C111.258 14.644 111.23 14.9427 111.192 15.204H101.308C101.458 16.2867 101.831 17.0987 102.428 17.64C103.044 18.1627 103.838 18.424 104.808 18.424C105.63 18.424 106.292 18.2653 106.796 17.948C107.3 17.6307 107.692 17.192 107.972 16.632L111.024 17.808C110.576 18.9093 109.792 19.768 108.672 20.384C107.552 20.9813 106.274 21.28 104.836 21.28ZM104.612 9.54801C102.802 9.54801 101.71 10.5467 101.336 12.544H107.636C107.524 11.5733 107.207 10.836 106.684 10.332C106.18 9.80935 105.49 9.54801 104.612 9.54801Z" fill="#101828"/>
<path d="M120.155 21.28C118.736 21.28 117.439 21.028 116.263 20.524C115.106 20.02 114.163 19.3107 113.435 18.396L115.647 16.156C116.095 16.828 116.692 17.3787 117.439 17.808C118.186 18.2373 119.072 18.452 120.099 18.452C120.827 18.452 121.406 18.3493 121.835 18.144C122.283 17.92 122.507 17.5747 122.507 17.108C122.507 16.8093 122.404 16.5573 122.199 16.352C121.994 16.128 121.583 15.9507 120.967 15.82L118.503 15.316C116.879 14.98 115.722 14.476 115.031 13.804C114.359 13.1133 114.023 12.2267 114.023 11.144C114.023 10.3787 114.247 9.66001 114.695 8.98801C115.162 8.31601 115.852 7.77468 116.767 7.36401C117.682 6.93468 118.82 6.72001 120.183 6.72001C123.02 6.72001 125.055 7.58801 126.287 9.32401L123.991 11.564C123.58 10.9107 123.039 10.416 122.367 10.08C121.714 9.72535 121.023 9.54801 120.295 9.54801C118.652 9.54801 117.831 10.0053 117.831 10.92C117.831 11.2187 117.962 11.48 118.223 11.704C118.484 11.9093 118.96 12.0867 119.651 12.236L122.507 12.824C123.888 13.104 124.878 13.58 125.475 14.252C126.072 14.9053 126.371 15.6987 126.371 16.632C126.371 17.976 125.83 19.0867 124.747 19.964C123.683 20.8413 122.152 21.28 120.155 21.28Z" fill="#101828"/>
</g>
</svg>
